name rise32.9588peak41.5061fall63.4684.mot
datacolumns 19
datarows 26
range 10.28162900000000 10.32329100000000
endheader
time	ground_force1_vx	ground_force1_vy	ground_force1_vz	ground_force1_px	ground_force1_py	ground_force1_pz	ground_force2_vx	ground_force2_vy	ground_force2_vz	ground_force2_px	ground_force2_py	ground_force2_pz	ground_torque1_x	ground_torque1_y	ground_torque1_z	ground_torque2_x	ground_torque2_y	ground_torque2_z	
10.28162900000000	-9.54758700000000	46.31965700000000	-11.15933000000000	0.28636300000000	0.00000000000000	0.09187200000000	-40.95370100000000	791.32222899999999	-49.06832200000000	0.09978900000000	0.00000000000000	-0.07367400000000	0.00000000000000	-5.95373700000000	0.00000000000000	0.00000000000000	-14.31290700000000	0.00000000000000	
10.28329400000000	-10.41884700000000	53.13945500000000	-12.29772400000000	0.28954700000000	0.00000000000000	0.09283100000000	-41.26557600000000	787.96459200000004	-48.68359300000000	0.09928000000000	0.00000000000000	-0.07358300000000	0.00000000000000	-6.60529500000000	0.00000000000000	0.00000000000000	-14.23070500000000	0.00000000000000	
10.28495700000000	-11.14687400000000	59.94361000000000	-13.30125300000000	0.29248700000000	0.00000000000000	0.09371800000000	-41.59123300000000	784.49246200000005	-48.27721700000000	0.09877200000000	0.00000000000000	-0.07348900000000	0.00000000000000	-7.19232300000000	0.00000000000000	0.00000000000000	-14.15013300000000	0.00000000000000	
10.28662500000000	-11.71612700000000	66.66670999999999	-14.15260700000000	0.29521600000000	0.00000000000000	0.09454200000000	-41.93100300000000	780.90601500000002	-47.84928600000000	0.09826800000000	0.00000000000000	-0.07339000000000	0.00000000000000	-7.70487500000000	0.00000000000000	0.00000000000000	-14.07131400000000	0.00000000000000	
10.28829600000000	-12.11926300000000	73.26758300000000	-14.84333900000000	0.29776400000000	0.00000000000000	0.09531100000000	-42.28513700000000	777.20531800000003	-47.39992500000000	0.09776600000000	0.00000000000000	-0.07328800000000	0.00000000000000	-8.13775300000000	0.00000000000000	0.00000000000000	-13.99435500000000	0.00000000000000	
10.28996200000000	-12.35652400000000	79.72894100000001	-15.37324700000000	0.30015400000000	0.00000000000000	0.09603200000000	-42.65380500000000	773.39032499999996	-46.92928600000000	0.09726700000000	0.00000000000000	-0.07318200000000	0.00000000000000	-8.49023200000000	0.00000000000000	0.00000000000000	-13.91935100000000	0.00000000000000	
10.29162800000000	-12.43460400000000	86.05511100000000	-15.74918400000000	0.30240600000000	0.00000000000000	0.09671100000000	-43.03708800000000	769.46087299999999	-46.43755300000000	0.09677000000000	0.00000000000000	-0.07307200000000	0.00000000000000	-8.76546300000000	0.00000000000000	0.00000000000000	-13.84637900000000	0.00000000000000	
10.29329700000000	-12.36519000000000	92.26838100000001	-15.98349300000000	0.30453600000000	0.00000000000000	0.09735200000000	-43.43497900000000	765.41668400000003	-45.92494000000000	0.09627700000000	0.00000000000000	-0.07295800000000	0.00000000000000	-8.96966300000000	0.00000000000000	0.00000000000000	-13.77549900000000	0.00000000000000	
10.29497500000000	-12.16335300000000	98.40449599999999	-16.09226500000000	0.30655900000000	0.00000000000000	0.09795900000000	-43.84737800000000	761.25736500000005	-45.39169100000000	0.09578700000000	0.00000000000000	-0.07284000000000	0.00000000000000	-9.11118100000000	0.00000000000000	0.00000000000000	-13.70675400000000	0.00000000000000	
10.29662900000000	-11.84594000000000	104.50782900000000	-16.09359200000000	0.30848500000000	0.00000000000000	0.09853600000000	-44.27408500000000	756.98240699999997	-44.83808300000000	0.09530000000000	0.00000000000000	-0.07271800000000	0.00000000000000	-9.19956100000000	0.00000000000000	0.00000000000000	-13.64017200000000	0.00000000000000	
10.29832100000000	-11.43011500000000	110.62667399999999	-16.00596300000000	0.31032600000000	0.00000000000000	0.09908600000000	-44.71480500000000	752.59119199999998	-44.26442500000000	0.09481700000000	0.00000000000000	-0.07259200000000	0.00000000000000	-9.24465900000000	0.00000000000000	0.00000000000000	-13.57576000000000	0.00000000000000	
10.29997000000000	-10.93211800000000	116.80902100000000	-15.84689900000000	0.31208900000000	0.00000000000000	0.09961100000000	-45.16913800000000	748.08299199999999	-43.67105700000000	0.09433700000000	0.00000000000000	-0.07246300000000	0.00000000000000	-9.25589000000000	0.00000000000000	0.00000000000000	-13.51350800000000	0.00000000000000	
10.30162400000000	-10.36632300000000	123.09904899999999	-15.63189800000000	0.31378200000000	0.00000000000000	0.10011300000000	-45.63658100000000	743.45697800000005	-43.05835000000000	0.09386200000000	0.00000000000000	-0.07232900000000	0.00000000000000	-9.24162700000000	0.00000000000000	0.00000000000000	-13.45338700000000	0.00000000000000	
10.30329800000000	-9.74459900000000	129.53449800000001	-15.37372000000000	0.31541000000000	0.00000000000000	0.10059400000000	-46.11652800000000	738.71222100000000	-42.42671100000000	0.09339100000000	0.00000000000000	-0.07219100000000	0.00000000000000	-9.20879600000000	0.00000000000000	0.00000000000000	-13.39535000000000	0.00000000000000	
10.30495700000000	-9.07598000000000	136.14495099999999	-15.08199900000000	0.31698000000000	0.00000000000000	0.10105600000000	-46.60826600000000	733.84770500000002	-41.77657700000000	0.09292400000000	0.00000000000000	-0.07204900000000	0.00000000000000	-9.16263800000000	0.00000000000000	0.00000000000000	-13.33933000000000	0.00000000000000	
10.30663100000000	-8.36661100000000	142.95100299999999	-14.76316600000000	0.31849400000000	0.00000000000000	0.10150000000000	-47.11097400000000	728.86233000000004	-41.10841800000000	0.09246300000000	0.00000000000000	-0.07190300000000	0.00000000000000	-9.10664300000000	0.00000000000000	0.00000000000000	-13.28524100000000	0.00000000000000	
10.30829700000000	-7.61992100000000	149.96420800000001	-14.42061200000000	0.31995700000000	0.00000000000000	0.10192800000000	-47.62372500000000	723.75492799999995	-40.42273600000000	0.09200600000000	0.00000000000000	-0.07175400000000	0.00000000000000	-9.04262800000000	0.00000000000000	0.00000000000000	-13.23298000000000	0.00000000000000	
10.30997200000000	-6.83698100000000	157.18768100000000	-14.05506600000000	0.32137300000000	0.00000000000000	0.10234100000000	-48.14548900000000	718.52426600000001	-39.72006700000000	0.09155500000000	0.00000000000000	-0.07160000000000	0.00000000000000	-8.97092000000000	0.00000000000000	0.00000000000000	-13.18242300000000	0.00000000000000	
10.31163100000000	-6.01696100000000	164.61716799999999	-13.66508200000000	0.32274300000000	0.00000000000000	0.10273900000000	-48.67512800000000	713.16906700000004	-39.00097700000000	0.09111000000000	0.00000000000000	-0.07144300000000	0.00000000000000	-8.89062400000000	0.00000000000000	0.00000000000000	-13.13343100000000	0.00000000000000	
10.31329800000000	-5.15766600000000	172.24243999999999	-13.24762000000000	0.32406900000000	0.00000000000000	0.10312300000000	-49.21140000000000	707.68801800000006	-38.26606700000000	0.09067100000000	0.00000000000000	-0.07128100000000	0.00000000000000	-8.79992900000000	0.00000000000000	0.00000000000000	-13.08584300000000	0.00000000000000	
10.31496100000000	-4.25607400000000	180.04882499999999	-12.79862200000000	0.32535400000000	0.00000000000000	0.10349500000000	-49.75296600000000	702.07978700000001	-37.51596500000000	0.09023800000000	0.00000000000000	-0.07111600000000	0.00000000000000	-8.69642400000000	0.00000000000000	0.00000000000000	-13.03948300000000	0.00000000000000	
10.31663200000000	-3.30883700000000	188.01875999999999	-12.31357100000000	0.32659900000000	0.00000000000000	0.10385500000000	-50.29838300000000	696.34303899999998	-36.75133200000000	0.08981200000000	0.00000000000000	-0.07094700000000	0.00000000000000	-8.57740700000000	0.00000000000000	0.00000000000000	-12.99415900000000	0.00000000000000	
10.31829600000000	-2.31272800000000	196.13323000000000	-11.78798000000000	0.32780400000000	0.00000000000000	0.10420400000000	-50.84611700000000	690.47645399999999	-35.97286000000000	0.08939300000000	0.00000000000000	-0.07077400000000	0.00000000000000	-8.44015400000000	0.00000000000000	0.00000000000000	-12.94966000000000	0.00000000000000	
10.31996500000000	-1.26499900000000	204.37301400000001	-11.21778700000000	0.32897100000000	0.00000000000000	0.10454200000000	-51.39454000000000	684.47874300000001	-35.18126800000000	0.08898100000000	0.00000000000000	-0.07059700000000	0.00000000000000	-8.28215000000000	0.00000000000000	0.00000000000000	-12.90576200000000	0.00000000000000	
10.32162700000000	-0.16364800000000	212.71969200000001	-10.59965700000000	0.33010000000000	0.00000000000000	0.10486900000000	-51.94193700000000	678.34866899999997	-34.37730400000000	0.08857600000000	0.00000000000000	-0.07041600000000	0.00000000000000	-8.10125400000000	0.00000000000000	0.00000000000000	-12.86222700000000	0.00000000000000	
10.32329100000000	0.99241900000000	221.15637400000000	-9.93117400000000	0.33119100000000	0.00000000000000	0.10518700000000	-52.48651100000000	672.08506299999999	-33.56174400000000	0.08817900000000	0.00000000000000	-0.07023200000000	0.00000000000000	-7.89581600000000	0.00000000000000	0.00000000000000	-12.81880000000000	0.00000000000000	
